<svg width="82" height="44" viewBox="0 0 82 44" fill="none" xmlns="http://www.w3.org/2000/svg">
<path d="M0 11.64L10.08 9V42.72H18.42V0L0 3.9V11.64Z" fill="black"/>
<path d="M55.2127 29.16C55.2127 26.28 54.6127 23.82 53.4127 21.78C52.2527 19.7 50.7127 18.1 48.7927 16.98C46.8727 15.86 44.7727 15.3 42.4927 15.3C41.2527 15.3 40.0327 15.42 38.8327 15.66C37.6727 15.86 36.5727 16.24 35.5327 16.8L38.0527 8.16H54.5527V0.719998H31.6927L25.9327 24.36C27.3727 23.56 28.7327 22.96 30.0127 22.56C31.3327 22.12 32.6127 21.82 33.8527 21.66C35.0927 21.46 36.2727 21.36 37.3927 21.36C38.9127 21.36 40.3127 21.64 41.5927 22.2C42.9127 22.72 43.9527 23.5 44.7127 24.54C45.5127 25.58 45.9127 26.86 45.9127 28.38C45.9127 29.94 45.5727 31.26 44.8927 32.34C44.2127 33.38 43.2327 34.18 41.9527 34.74C40.7127 35.3 39.1927 35.58 37.3927 35.58C36.2327 35.58 35.0127 35.36 33.7327 34.92C32.4527 34.44 31.2127 33.8 30.0127 33C28.8527 32.2 27.7727 31.3 26.7727 30.3L22.7527 36.96C23.9127 38.12 25.2527 39.2 26.7727 40.2C28.2927 41.16 30.0527 41.94 32.0527 42.54C34.0927 43.14 36.3927 43.44 38.9527 43.44C40.9927 43.44 42.9727 43.16 44.8927 42.6C46.8127 42.04 48.5527 41.18 50.1127 40.02C51.6727 38.86 52.9127 37.38 53.8327 35.58C54.7527 33.78 55.2127 31.64 55.2127 29.16Z" fill="black"/>
<path d="M58.5197 26.4C58.5197 27.34 58.7297 28.2 59.1497 28.98C59.5897 29.74 60.1997 30.35 60.9797 30.81C61.7597 31.27 62.6397 31.5 63.6197 31.5C64.6397 31.5 65.5297 31.27 66.2897 30.81C67.0697 30.35 67.6697 29.74 68.0897 28.98C68.5297 28.2 68.7497 27.34 68.7497 26.4C68.7497 25.46 68.5297 24.61 68.0897 23.85C67.6697 23.07 67.0697 22.45 66.2897 21.99C65.5297 21.53 64.6397 21.3 63.6197 21.3C62.6397 21.3 61.7597 21.53 60.9797 21.99C60.1997 22.45 59.5897 23.07 59.1497 23.85C58.7297 24.61 58.5197 25.46 58.5197 26.4ZM61.2797 26.4C61.2797 25.94 61.3797 25.52 61.5797 25.14C61.7797 24.76 62.0497 24.46 62.3897 24.24C62.7497 24.02 63.1597 23.91 63.6197 23.91C64.1197 23.91 64.5397 24.02 64.8797 24.24C65.2197 24.46 65.4897 24.76 65.6897 25.14C65.8897 25.52 65.9897 25.94 65.9897 26.4C65.9897 26.84 65.8897 27.26 65.6897 27.66C65.4897 28.04 65.2197 28.35 64.8797 28.59C64.5397 28.81 64.1197 28.92 63.6197 28.92C63.1597 28.92 62.7497 28.81 62.3897 28.59C62.0497 28.35 61.7797 28.04 61.5797 27.66C61.3797 27.26 61.2797 26.84 61.2797 26.4ZM71.0297 38.04C71.0297 38.96 71.2497 39.81 71.6897 40.59C72.1297 41.37 72.7297 41.99 73.4897 42.45C74.2697 42.89 75.1597 43.11 76.1597 43.11C77.1597 43.11 78.0397 42.89 78.7997 42.45C79.5797 41.99 80.1797 41.37 80.5997 40.59C81.0397 39.81 81.2597 38.96 81.2597 38.04C81.2597 37.08 81.0397 36.22 80.5997 35.46C80.1797 34.68 79.5797 34.07 78.7997 33.63C78.0397 33.17 77.1597 32.94 76.1597 32.94C75.1597 32.94 74.2697 33.17 73.4897 33.63C72.7297 34.07 72.1297 34.68 71.6897 35.46C71.2497 36.22 71.0297 37.08 71.0297 38.04ZM73.8197 38.01C73.8197 37.57 73.9097 37.16 74.0897 36.78C74.2897 36.4 74.5597 36.1 74.8997 35.88C75.2597 35.64 75.6797 35.52 76.1597 35.52C76.6397 35.52 77.0497 35.64 77.3897 35.88C77.7497 36.1 78.0197 36.4 78.1997 36.78C78.3997 37.16 78.4997 37.57 78.4997 38.01C78.4997 38.47 78.3997 38.89 78.1997 39.27C78.0197 39.65 77.7497 39.96 77.3897 40.2C77.0497 40.42 76.6397 40.53 76.1597 40.53C75.6797 40.53 75.2597 40.42 74.8997 40.2C74.5597 39.96 74.2897 39.65 74.0897 39.27C73.9097 38.87 73.8197 38.45 73.8197 38.01ZM75.5597 21.72L61.0097 42.72H64.2197L78.7697 21.72H75.5597Z" fill="black"/>
</svg>
